<svg width="77" height="86" viewBox="0 0 77 86" fill="none" xmlns="http://www.w3.org/2000/svg">
<g opacity="0.1">
<path d="M40.8119 26.5187C38.3118 25.0917 36.6079 23.5031 35.0637 22.0203C33.6791 20.6433 32.7714 18.8932 32.2888 17.195C31.485 14.5949 32.7005 12.4141 34.714 10.7622C35.8795 9.69678 37.3642 8.84295 39.1162 8.62568C40.4432 8.35648 41.5567 7.71611 42.6702 7.07574C46.0646 5.42001 49.5167 5.4105 52.709 7.52607C56.061 9.74741 59.0418 12.1822 61.2822 15.7343C64.1091 20.1346 64.8128 24.9656 64.7203 29.958C64.6741 32.4543 64.7875 35.0563 64.0508 37.5545C63.0507 40.7969 62.4756 44.0912 59.7735 46.4354C58.9254 47.022 59.0349 48.2432 58.6657 49.147C57.1905 53.4529 54.0634 55.7452 50.1382 57.5086C49.5016 57.7759 49.29 58.0952 49.3977 58.6259C49.5592 59.4221 49.4015 60.0068 48.8188 60.5395C44.9512 63.9491 40.7106 66.8818 35.3488 67.6932C34.2872 67.9085 33.3314 67.9643 32.3218 67.7546C30.8871 67.493 30.1986 68.1853 29.2447 68.9315C26.9676 71.3276 24.4233 73.0872 21.5596 74.6353C20.8173 75.0622 20.0211 75.2237 19.2769 74.9602C16.5133 74.2774 15.0134 69.608 16.7597 67.3195C17.2886 66.5214 17.5001 66.2022 16.5424 65.5675C15.904 65.1444 15.3174 64.2962 14.8905 63.5539C13.3963 60.9557 13.6022 58.5652 15.5619 56.6479C17.787 54.6767 21.0795 54.5614 23.2622 56.4674C24.7526 57.6848 26.3488 58.7425 27.7853 59.6945C28.743 60.3292 29.4335 60.3273 30.1739 59.21C32.1837 56.1772 34.0339 53.0387 36.2571 50.3772C37.1572 49.3656 37.7918 48.4079 39.065 47.8733C40.7093 47.1252 41.5555 45.8483 42.3479 44.306C43.4038 42.0194 43.9808 39.4154 45.7809 37.3923C46.0983 36.9135 45.5098 35.375 45.1887 34.473C44.6003 32.9345 43.3753 31.6632 43.0522 30.0708C42.9407 28.1592 42.035 27.0995 40.8119 26.5187ZM62.905 26.4579C62.3108 22.8481 61.7705 19.5037 59.7975 16.5882C58.2513 14.415 56.2821 12.8802 54.4186 11.1859C50.9032 7.47793 47.0242 6.74509 42.5701 9.30659C41.297 9.84118 40.0239 10.3758 38.6969 10.645C36.8391 11.0219 35.3025 12.3007 34.2985 14.1623C33.0311 16.7681 34.5234 18.6759 36.0157 20.5837C37.508 22.4915 39.583 23.8667 41.6581 25.2418C42.4562 25.7707 42.8273 25.5572 43.3562 24.7591C44.0948 22.9514 45.5256 21.8321 47.3834 21.4553C50.6739 20.6496 53.6509 21.7035 56.6799 22.3325C59.23 22.6441 61.0934 24.3385 62.905 26.4579ZM58.3856 24.6115C55.726 23.0787 52.2201 22.8228 48.768 22.8323C46.8564 22.9438 45.2659 23.9572 44.5812 26.0303C44.2139 27.6246 44.4831 28.9516 45.1773 30.3305C46.2446 32.1864 47.4176 33.8827 47.3176 36.1135C47.3195 36.8039 47.5849 36.7501 48.1695 36.9078C52.8966 37.0541 55.7735 40.3389 58.3851 43.6776C59.1312 44.6315 59.3428 44.3123 59.7659 43.6738C60.0832 43.1949 60.4005 42.7161 60.5583 42.1314C61.6141 39.8449 62.0854 37.4005 62.5566 34.9562C63.1299 30.9715 62.4299 27.5213 58.3856 24.6115ZM42.1978 47.6522C44.542 50.3543 47.3632 52.6834 49.0709 55.6527C51.0325 54.4258 53.5269 53.7817 55.1674 51.6528C57.231 48.8854 59.1331 45.3219 55.6196 42.3044C53.81 40.8754 52.4773 39.0734 50.033 38.6021C48.4387 38.2348 47.0598 38.929 46.4789 40.1521C45.6346 42.1194 44.6307 43.981 43.7864 45.9484C43.0979 46.6407 42.8344 47.3849 42.1978 47.6522ZM32.3161 65.6834C33.5373 65.5738 34.4931 65.518 35.4489 65.4623C39.3241 64.8143 42.505 62.7874 45.6321 60.4951C48.0707 58.8951 48.2785 57.1951 46.4131 54.8103C45.1343 53.2737 43.8554 51.7371 42.3112 50.2543C41.0862 48.983 39.9707 48.933 38.5937 50.3176C35.8935 53.3523 33.9376 56.6504 31.8759 60.1081C31.5585 60.587 30.4469 61.9178 32.3066 62.2313C33.3162 62.441 33.4777 63.2372 33.1085 64.141C33.1104 64.8314 32.7392 65.0449 32.3161 65.6834ZM23.2502 71.391C22.0252 70.1198 22.0252 70.1197 24.7792 67.3505C24.0888 67.3524 23.2926 67.5139 22.6022 67.5158C21.9118 67.5177 21.3272 67.36 21.2195 66.8292C21.1118 66.2984 21.5888 65.9253 22.0657 65.5523C23.1792 64.9119 24.0274 64.3254 25.2467 63.5254C24.0236 62.9445 22.9062 62.2041 21.8427 61.729C21.3639 61.4117 20.885 61.0944 21.3081 60.4559C21.5716 59.7117 22.1563 59.8694 22.9005 60.1329C23.4852 60.2906 24.0179 60.8733 24.6025 61.031C25.8256 61.6119 26.8891 62.0869 28.7468 61.71C25.8756 60.4964 24.0121 58.8021 21.9371 57.427C20.0217 56.1576 17.4216 56.9614 16.4176 58.823C15.5195 60.525 16.2694 62.8597 18.6637 64.4464C20.2599 65.5041 20.3676 66.0349 19.1502 67.5253C17.7212 69.335 17.6712 70.4504 19.2692 72.1986C19.9616 72.8871 20.6539 73.5756 21.7136 72.6698C21.8713 72.0852 22.5078 71.8179 23.2502 71.391Z" fill="#0A0A0A"/>
</g>
</svg>
