<svg width="130" height="336" viewBox="0 0 130 336" fill="none" xmlns="http://www.w3.org/2000/svg">
<g opacity="0.1">
<path d="M23.3935 326.638C21.4632 326.638 19.8086 326.362 18.154 326.086C17.0509 325.811 16.2236 325.259 15.6721 324.708C14.8448 323.88 14.8448 322.777 15.3963 321.398C16.4994 319.192 17.6025 317.262 18.9813 315.332C17.3267 315.056 16.2236 314.78 14.8448 314.504C13.7417 314.228 13.1902 313.401 13.466 312.298C14.0175 310.092 14.2933 307.886 15.3963 305.955C15.9479 305.128 16.2236 304.301 16.7752 303.474C17.3267 302.371 17.8782 301.267 18.9813 300.716C19.8086 300.164 19.8086 299.889 18.9813 299.337C17.8782 298.786 17.0509 297.958 15.9479 297.407C15.1206 296.855 15.1206 296.304 15.3963 295.476C15.9479 294.373 16.2236 292.994 17.3267 291.616C16.2236 291.616 15.3963 291.616 14.569 291.34C13.1902 290.788 12.6387 290.513 12.6387 289.134C12.9144 286.1 12.9144 282.791 14.0175 279.758C14.8448 277.827 15.6721 275.621 16.4994 273.691C17.6025 271.761 19.2571 270.657 20.9117 269.279C23.6693 266.521 27.2543 265.142 31.115 264.591C33.0454 264.039 35.2515 264.039 37.4576 264.591C40.491 265.142 43.8002 265.418 46.8337 266.245C47.9367 266.521 49.0398 266.797 50.4186 267.072C50.9701 267.348 51.2459 266.797 51.5217 266.521C52.9005 263.763 55.6582 261.557 57.5885 259.075C58.1401 258.248 58.9674 257.421 59.2431 256.593C59.7947 255.215 60.8977 254.387 61.725 253.284C62.2766 252.733 62.8281 252.181 63.3796 251.354C63.9311 250.527 64.4827 249.975 65.31 249.423C66.6888 248.045 68.6192 247.769 69.998 246.114C72.2041 243.632 75.5133 242.529 77.9952 240.599C82.1317 237.841 86.544 235.084 90.6805 232.05C92.6108 230.671 94.8169 229.017 96.7473 227.638C99.7807 225.432 103.366 224.053 106.951 222.95C110.26 222.123 113.293 221.295 116.602 220.744C123.772 219.917 130.391 217.435 137.285 216.332C141.146 215.78 145.006 215.228 148.591 214.953C150.797 214.677 153.004 214.125 155.485 213.574C156.313 213.298 155.761 212.471 156.313 212.195C156.864 211.919 157.14 213.022 157.692 212.471C158.243 211.644 159.07 211.092 159.622 210.265C160.725 209.162 161.552 207.783 162.931 206.956C164.586 206.128 165.965 204.749 167.068 203.371C167.619 202.543 168.446 201.716 169.274 201.164C172.583 198.958 174.513 195.649 176.444 192.34C177.823 190.134 180.029 188.755 181.959 186.825C182.235 186.825 182.511 186.825 182.786 186.825C186.095 188.203 189.68 188.479 192.99 189.858C194.644 190.685 195.747 191.513 196.85 193.167C197.953 194.822 199.332 196.201 200.711 197.579C203.193 199.786 205.123 202.267 206.778 205.025C207.329 206.128 208.157 206.956 208.984 208.059C210.087 209.989 210.363 212.195 210.639 214.125C210.639 214.953 210.087 215.78 209.811 216.332C209.536 217.159 208.708 217.71 208.433 218.538C208.433 218.813 208.157 218.813 207.881 218.813C205.951 218.813 204.848 219.917 203.745 221.295C203.469 221.571 203.469 221.571 203.193 221.847C199.884 223.501 197.402 226.259 194.368 228.465C189.405 232.05 184.992 236.462 180.029 240.323C177.271 242.529 174.789 244.735 172.031 246.942C170.928 247.769 170.101 249.423 169.274 250.527C167.068 254.111 164.586 257.421 161.828 260.178C159.898 262.109 157.416 263.763 155.21 265.418C151.901 267.624 148.316 269.003 144.455 269.83C142.524 270.382 140.87 271.209 139.215 272.036C136.182 273.415 132.873 273.691 129.563 274.518C124.048 275.897 118.533 277.827 112.742 279.482C110.811 280.033 108.881 281.137 107.226 282.24C106.675 282.515 105.848 282.791 105.296 283.067C102.538 283.894 100.332 285.825 98.1261 287.479C96.1958 288.858 94.2654 290.237 92.335 291.616C92.0593 291.891 91.7835 292.167 91.5078 292.443C90.6805 292.994 90.1289 293.546 89.0259 293.822C87.647 294.373 85.9924 294.925 84.8894 295.752C83.7863 296.304 82.959 296.855 81.8559 297.407C81.5802 297.407 81.3044 297.407 81.3044 297.683C77.7195 300.44 73.0314 301.819 69.4465 304.577C68.3434 305.404 66.9646 305.68 65.8615 306.507C65.31 307.059 64.7584 307.61 64.7584 308.437C64.7584 312.574 63.6554 316.159 62.0008 319.744C60.8977 322.226 59.7947 324.708 57.8643 326.638C55.9339 328.844 54.0036 330.774 51.2459 331.877C49.3156 332.705 47.3852 334.084 45.1791 334.635C40.7668 335.738 36.3545 336.29 31.9423 335.738C29.7362 335.462 27.8058 335.187 25.8754 334.359C24.4966 333.808 23.6693 332.981 22.5662 332.153C22.0147 331.602 22.2905 330.774 22.2905 330.223C22.5662 329.12 23.1178 328.017 23.3935 326.638ZM117.706 276.449C117.706 276.449 117.43 276.449 117.43 276.724L117.706 276.449C120.463 276.173 122.945 274.794 125.427 274.242C129.012 273.415 132.873 272.588 136.458 271.761C137.561 271.485 138.388 271.209 139.215 270.382C136.733 270.657 134.251 271.209 131.77 271.761C127.082 272.864 122.394 274.518 117.706 275.897C117.706 275.897 117.706 276.173 117.706 276.449ZM82.959 277C82.959 277 83.2348 277 82.959 277C82.959 276.724 82.959 276.724 82.959 277C79.6498 278.379 76.6164 280.585 73.583 282.24C71.9284 283.067 70.2738 284.17 68.6192 284.997C65.31 286.652 62.5523 288.858 59.2431 290.513C57.3128 291.34 55.9339 292.994 53.7278 293.546C53.1763 293.822 52.9005 293.546 52.349 293.27C50.6944 292.443 49.0398 291.34 47.3852 291.064C45.1791 290.788 43.2487 290.513 41.0426 290.788C37.7334 291.064 34.7 291.616 31.6665 292.994C27.53 294.925 23.9451 297.683 20.6359 300.992C19.8086 301.543 18.9813 302.095 18.4298 302.922C16.7752 305.68 15.3963 308.713 14.8448 312.022C14.8448 312.574 14.8448 312.85 15.3963 312.85C16.7752 313.401 18.154 313.677 19.8086 313.677C20.9117 313.677 21.4632 314.504 20.6359 315.332C19.2571 317.538 17.6025 319.468 16.7752 321.95C16.2236 323.329 16.2236 323.88 17.6025 324.432C18.154 324.708 18.7055 324.983 19.2571 324.983C20.9117 325.259 22.5662 325.259 24.2208 325.259C25.3239 325.259 25.5997 325.811 25.0481 326.638C24.2208 327.741 24.2208 329.12 23.6693 330.499C23.3935 330.774 23.6693 331.326 23.9451 331.602C24.7724 332.153 25.5997 332.705 26.427 332.981C27.53 333.532 28.9089 333.532 30.0119 333.808C33.8727 334.635 37.4576 334.359 41.3183 333.808C45.1791 333.256 48.2125 331.326 51.5217 329.671C52.349 329.12 53.1763 328.844 54.0036 328.017C56.4855 325.535 58.6916 322.777 60.0704 319.468C61.725 315.883 63.1039 312.022 63.1039 308.162C63.1039 307.61 63.1039 307.334 62.5523 307.059C62.2766 307.059 62.0008 306.783 62.0008 306.507C62.0008 305.955 62.2766 305.955 62.5523 305.68C63.3796 305.404 64.2069 305.128 64.7584 304.852C67.5161 303.198 69.998 301.543 73.0314 300.164C76.0649 298.51 79.0983 296.855 82.1317 295.201C84.8894 293.822 87.3713 292.443 89.8532 290.788C91.232 289.961 92.6108 288.582 94.5412 287.479C93.9896 287.479 93.7139 287.479 93.7139 287.479C89.8532 288.858 85.9924 288.582 82.1317 288.306C80.2013 288.031 78.8225 286.652 78.8225 284.722C78.8225 283.343 79.374 281.964 80.2013 280.861C81.3044 279.482 82.4075 278.379 82.959 277ZM199.884 221.847V222.123C199.884 222.123 200.16 222.123 199.884 221.847C200.435 221.847 200.987 221.847 200.711 221.295C200.16 220.192 200.711 220.468 201.263 220.468C202.09 220.468 202.641 220.468 202.09 219.365V219.089C202.917 217.986 202.917 216.883 202.917 215.78C203.193 214.677 203.193 213.85 203.469 212.747C203.469 212.195 203.745 211.644 204.296 211.919C205.123 211.919 204.848 212.471 204.848 213.022C204.848 213.574 204.848 213.85 204.572 214.401C204.296 215.504 204.02 216.883 204.02 218.262C204.848 217.435 205.951 217.159 205.951 216.056C205.951 214.677 206.502 213.574 206.502 212.195C206.502 211.644 206.778 211.092 207.605 211.368C208.708 211.368 208.433 211.919 208.433 212.195C208.157 213.298 208.157 214.401 207.881 215.504C209.536 214.953 209.536 214.125 209.26 212.195C208.708 209.162 207.054 206.956 205.399 204.749C204.572 203.646 204.02 202.267 203.193 201.44C200.987 199.234 198.505 197.028 196.575 194.546C194.92 192.616 193.265 191.237 191.059 190.685C188.853 189.858 186.371 189.582 184.165 188.755C183.062 188.479 182.511 188.755 182.235 189.582C181.959 190.41 181.683 190.685 181.132 190.961C180.029 191.513 179.477 192.34 178.65 193.443C176.719 196.476 174.513 199.51 172.307 202.267C170.377 204.474 168.171 206.404 165.965 208.059C164.31 209.162 162.655 210.54 161.277 211.919L161.001 212.195C160.449 213.574 159.346 214.125 158.243 214.953C156.589 216.056 154.658 216.056 153.004 216.332C149.143 217.159 145.282 217.986 141.421 218.262C137.836 218.538 134.527 219.089 131.218 220.192C129.012 221.02 126.53 221.571 124.324 221.571C122.118 221.571 120.187 222.123 117.981 222.398C116.602 222.674 115.224 222.95 113.845 223.226C111.639 223.501 109.157 223.777 107.226 225.156C105.02 226.535 102.538 226.811 100.332 228.741C98.6777 230.12 96.7473 231.499 94.5412 232.602C93.9896 232.878 93.7139 233.153 93.1624 233.429C92.3351 234.532 91.232 235.084 89.8532 235.635C88.1986 236.187 87.0955 237.29 85.9924 238.393C85.7167 238.669 85.7167 238.944 85.1651 238.944C82.1317 240.599 79.6498 242.805 76.6164 244.184C73.8587 245.563 71.9284 247.769 69.1707 249.423C67.5161 250.251 66.6888 251.905 65.31 253.008C64.4827 253.56 63.9312 254.111 63.6554 254.939C62.5523 257.421 60.3462 259.075 58.4158 261.006C57.037 262.66 55.1066 264.315 53.7278 266.521C61.725 264.315 69.7222 263.212 76.0649 257.972C76.0649 257.972 75.7891 257.696 75.5133 257.696C75.2376 257.421 74.9618 257.145 75.2376 256.593C75.5133 256.318 75.7891 256.318 76.3406 256.593C76.6164 256.593 76.8922 256.869 76.8922 256.869C77.7194 257.972 79.0983 257.696 79.9256 257.145C83.7863 255.215 88.1986 254.111 92.0593 251.905C93.1623 251.354 93.4381 251.078 92.335 250.251C91.7835 249.975 90.9562 249.699 91.5078 248.872C92.0593 248.045 92.6108 248.872 93.4381 248.872C93.7139 248.872 93.7139 248.872 93.9896 249.148C94.8169 249.699 95.6442 249.699 96.4715 249.699C98.6777 249.699 100.884 248.872 102.814 247.769C105.296 246.666 107.778 245.287 110.536 245.011C109.708 244.735 109.433 243.908 108.605 243.632C108.329 243.632 107.778 243.357 107.778 242.805C108.054 242.254 108.605 242.254 109.157 242.529C111.639 243.632 113.569 245.287 114.672 247.769C114.948 248.596 114.948 249.148 114.948 249.975C114.396 251.63 113.845 253.56 113.018 255.215C112.742 255.766 112.466 256.042 112.19 256.318C110.26 257.972 107.778 258.8 106.123 261.006C106.123 261.281 105.848 261.281 105.572 261.281C101.987 263.763 98.9534 266.797 95.3685 269.003C93.4381 270.106 91.7835 271.761 89.8532 272.864C87.9228 273.967 86.544 275.345 85.4409 277C85.4409 277 85.1651 277.276 85.4409 277.276C85.4409 277.552 85.7167 277.276 85.7167 277.276C87.0955 275.897 88.7501 275.621 90.6805 275.07C91.232 274.794 91.7835 274.794 92.335 275.07C94.8169 276.449 96.7473 278.379 97.2988 281.412C97.5746 282.24 97.2988 282.791 96.4715 283.343C95.92 283.618 95.6442 283.894 95.0927 284.17C92.8866 285.549 90.6805 286.652 88.1986 287.479C90.6805 287.479 93.1623 286.652 95.6442 286.1C98.9534 285.273 101.987 283.067 105.296 281.964C106.399 281.412 107.778 280.861 108.881 280.033C112.19 278.103 114.948 275.621 119.084 274.794C122.118 274.242 125.151 272.864 128.185 272.036C132.045 270.933 135.906 269.83 140.043 269.279C143.076 269.003 145.834 269.003 148.867 267.9C153.831 265.969 157.967 263.212 161.828 259.627C165.689 256.042 168.171 251.63 171.204 247.217C172.031 246.114 172.307 244.184 174.238 244.46L174.513 244.184C175.065 241.978 175.341 239.772 176.168 237.566C176.168 237.29 175.892 236.738 176.444 236.738C176.995 236.738 176.995 237.29 176.995 237.566C176.995 239.22 176.444 240.875 176.168 242.529C177.271 241.702 178.098 241.15 178.374 239.496C178.374 237.29 178.926 235.084 178.926 232.878C178.926 232.326 179.201 232.05 179.753 232.05C180.304 232.05 180.58 232.602 180.58 233.153C180.304 235.359 180.304 237.566 179.753 239.772V240.047H180.029C180.856 239.22 182.235 238.669 182.235 237.29C182.511 235.084 182.786 232.602 183.338 230.396C183.338 229.844 183.614 229.568 183.889 229.293C184.165 229.293 184.441 229.293 184.717 229.568C184.992 230.12 184.992 230.396 184.717 230.947C184.165 232.878 183.889 234.808 183.614 236.738C183.614 236.738 183.889 236.738 183.889 237.014C184.717 236.462 185.544 235.911 185.82 234.532C186.095 231.774 186.647 229.017 187.474 226.259C187.474 225.708 187.75 225.156 188.302 225.432C188.853 225.432 188.853 225.983 188.577 226.535C188.302 226.811 188.302 227.362 188.302 227.638C188.026 229.568 187.474 231.774 187.199 233.981C188.302 233.429 189.129 232.602 189.68 231.774C189.956 231.499 190.508 231.223 190.508 230.396C190.784 229.293 190.784 228.189 191.059 227.086C191.335 225.432 191.611 223.501 191.887 221.847C191.887 221.295 192.162 220.744 192.714 221.02C193.265 221.295 193.265 221.847 193.265 222.123C192.438 224.329 192.438 226.811 191.887 229.293C191.611 229.568 191.611 229.568 191.887 229.844C191.887 230.12 192.162 229.844 192.162 229.568C192.714 229.293 193.265 228.741 193.817 228.465C194.92 227.914 195.472 226.811 195.472 225.708C195.472 224.605 195.747 223.226 196.023 222.123C196.299 221.295 196.575 220.744 196.299 219.917C196.299 219.089 196.299 218.538 196.85 217.986C197.126 217.71 197.402 217.71 197.402 217.986C197.953 218.538 197.953 219.365 197.678 219.917C197.402 221.847 197.126 223.501 196.575 225.432C196.575 225.708 196.299 225.708 196.575 225.983H196.85C197.402 225.432 197.953 225.156 198.781 224.605C199.056 224.329 199.332 224.329 199.332 223.777C199.608 221.295 199.884 218.538 200.435 216.056C200.435 215.504 200.711 214.953 201.263 214.953C201.814 214.953 201.814 215.78 201.814 216.332C200.987 217.71 200.435 219.641 199.884 221.847ZM34.1484 265.694C31.115 265.418 28.3573 266.245 25.8754 267.624C23.1178 269.003 20.9117 271.209 18.7055 273.139L18.4298 273.415C15.9479 277.552 14.2933 281.964 14.2933 286.928C14.2933 289.961 14.2933 289.961 17.0509 289.961C18.7055 289.961 19.2571 291.064 18.4298 292.443C17.8782 293.27 17.6025 294.373 17.0509 295.201C16.7752 295.752 17.0509 295.752 17.3267 296.304C18.154 297.407 19.8086 297.683 20.9117 298.51C21.1874 298.786 21.4632 298.51 21.4632 298.234C23.9451 295.201 27.53 293.27 31.115 291.616C36.9061 289.134 42.6972 288.582 49.0398 289.685C50.1428 289.961 51.7974 289.685 52.6247 290.513C53.7278 291.34 53.7278 290.788 54.2793 289.961C54.5551 289.685 54.5551 289.41 54.5551 288.858C54.5551 286.652 56.2097 285.549 57.8643 284.722C61.1735 283.067 64.4827 281.688 67.7919 280.309C70.8253 279.206 74.1345 278.379 76.8922 276.724C77.9952 275.897 78.8225 275.07 80.2013 274.518C82.959 273.415 85.4409 272.312 87.9228 270.933C92.0593 268.727 95.92 265.969 99.7807 263.212C101.435 261.833 102.538 259.903 104.469 259.075C106.123 258.248 107.226 256.869 108.881 256.042C110.26 255.49 111.639 254.387 112.19 252.733C112.466 251.905 113.018 250.802 113.293 249.975C113.845 248.596 113.293 246.39 112.19 245.287C112.19 245.287 111.914 245.011 111.639 245.011C109.708 245.287 107.778 245.839 106.399 246.942C104.469 248.32 102.538 249.423 100.332 250.527C96.7473 252.457 92.8866 253.836 89.0259 254.939C85.7167 256.042 82.6832 257.696 79.374 258.524C76.8922 259.351 74.4103 260.454 72.2041 261.557C69.998 262.66 68.0676 263.488 65.8615 264.039C62.2766 264.866 58.9674 265.969 55.3824 267.072C54.5551 267.348 54.0036 267.624 53.1763 267.9C51.7974 269.003 50.6944 269.003 49.3156 267.624L49.0398 267.348C44.076 267.072 39.1122 266.245 34.1484 265.694ZM83.5105 287.203C84.3378 287.755 84.3378 286.652 84.8894 286.376C88.4743 285.549 91.5078 283.894 94.5412 281.964C94.8169 281.688 95.0927 281.412 94.8169 280.861C94.5412 278.93 93.1624 277.552 91.7835 276.449C90.9562 275.621 89.5774 275.345 88.7501 275.897C87.3713 277 85.9924 278.103 84.3378 279.206C82.959 280.309 82.1317 281.964 80.7529 282.791C80.2013 283.343 79.9256 284.446 80.2013 285.273C80.4771 286.1 81.0286 286.652 81.5802 286.652C82.1317 286.928 82.6832 286.928 83.5105 287.203ZM56.7612 289.685C58.9674 287.479 61.4493 286.652 63.6554 285.273C63.3796 285.273 63.3796 285.273 63.1039 285.273C60.8977 285.825 59.2431 287.479 57.037 288.031C56.4855 288.306 56.7612 288.858 56.7612 289.685ZM68.6192 282.515C67.5161 282.791 66.6888 283.067 66.1373 284.17C66.9646 283.618 67.7919 283.343 68.6192 282.515ZM182.511 236.738C182.511 236.462 182.511 236.462 182.511 236.738C182.511 236.462 182.511 236.738 182.511 236.738ZM64.2069 285.273C64.2069 285.273 64.2069 284.997 64.2069 285.273C63.9312 284.997 63.9312 285.273 64.2069 285.273C63.9312 285.273 63.9312 285.273 64.2069 285.273Z" fill="#0A0A0A"/>
<path d="M127.335 7.29249C127.335 7.56825 127.059 7.56826 127.059 7.56826C127.059 7.29249 127.059 7.29249 127.059 7.01672C127.335 7.01672 127.335 7.01672 127.335 7.29249Z" fill="#FDFDFD"/>
<path d="M114.925 17.7716C114.65 17.7716 114.65 18.0474 114.925 17.7716C114.65 17.7716 114.65 17.7716 114.65 17.4958C114.65 17.7716 114.65 17.7716 114.925 17.7716Z" fill="#FDFDFD"/>
<path d="M21.165 54.7242C21.165 54.7242 20.8893 55 20.8893 54.7242C20.8893 54.7242 20.8893 54.7242 21.165 54.7242Z" fill="#FDFDFD"/>
<path d="M18.683 54.7242H18.9588C19.2345 55 18.9587 55 18.683 54.7242C18.9587 55 18.9587 54.7242 18.683 54.7242Z" fill="#FDFDFD"/>
<path d="M0.206825 63.2732C-0.0689415 63.2732 -0.0689415 63.2732 0.206825 63.2732C-0.0689415 63.2732 -0.0689415 62.9974 0.206825 63.2732C0.206825 62.9974 0.206825 63.2732 0.206825 63.2732Z" fill="#FDFDFD"/>
</g>
</svg>
