<svg width="122" height="128" viewBox="0 0 122 128" fill="none" xmlns="http://www.w3.org/2000/svg">
<g opacity="0.1">
<path d="M23.7722 76.8862C18.9393 72.0199 16.6044 65.7335 15.4192 59.165C13.9572 51.4538 13.2617 43.5546 15.8165 35.6646C20.6351 20.3595 35.9144 11.3641 51.0802 15.3083C57.5667 16.9443 63.5918 16.6761 70.0002 16.3137C85.975 15.2175 98.0608 21.5317 104.711 37.25C106.861 42.7747 106.052 47.8152 106.577 53.3353C107.379 59.9979 107.706 66.3737 108.891 72.9423C109.813 76.7509 109.111 80.5548 107.457 83.7851C104.534 90.1516 102.177 97.1859 96.8762 102.118C89.5524 108.758 82.1363 115.017 71.3421 114.034C65.1324 113.541 60.0866 111.148 56.4956 106.38C53.7847 110.273 50.4137 113.118 45.9996 115.009C42.3518 116.711 38.6119 118.032 34.7015 116.975C31.6499 116.11 28.8893 114.77 27.6757 111.436C27.4912 110.674 26.9234 110.007 25.9725 109.433C14.1918 101.026 16.8033 86.6666 22.8071 77.9301C23.5735 77.742 23.8645 77.2671 23.7722 76.8862ZM64.2948 78.2386C64.2948 78.2386 64.2025 77.8578 63.8193 77.9519C63.9116 78.3327 63.9116 78.3327 64.2948 78.2386C64.2948 78.2386 63.9116 78.3327 64.2948 78.2386C66.0903 80.6225 70.5684 82.3479 74.4929 81.7882C77.9419 80.9417 81.7741 80.0011 85.2232 79.1546C87.5225 78.5903 88.9632 77.8332 88.9915 74.5983C87.7354 76.117 86.8909 74.3068 85.4502 75.0639C81.8025 76.7662 78.2612 77.2318 74.3367 77.7915C70.8877 78.638 67.4529 77.8671 64.2948 78.2386ZM63.0033 94.6955C62.2227 96.5011 61.3498 97.9258 60.0936 99.4446C58.8375 100.963 58.8233 102.581 60.0511 104.297C63.7344 109.446 69.2698 110.508 75.2027 109.859C84.0027 109.313 89.8859 103.431 95.7691 97.5482C99.431 94.2284 100.623 89.0939 102.859 84.9137C105.094 80.7336 105.52 75.7871 104.796 71.1228C103.809 63.6985 102.638 55.5125 102.709 47.4251C102.752 42.5727 101.354 38.4773 99.0971 34.1893C93.1712 23.1352 83.6473 19.0167 71.2138 19.6474C64.4222 20.1037 57.6305 20.5601 50.7609 19.0182C36.837 15.1726 23.1829 24.1727 19.5281 37.5781C15.9798 49.7469 18.6554 60.7917 23.8148 72.0338C24.3825 72.7015 24.8438 74.6058 26.1922 73.4678C27.5406 72.3299 29.6554 71.0038 28.8109 69.1936C26.7386 65.6673 26.107 61.3838 25.5676 57.4812C24.503 48.0586 25.6313 39.3082 32.8629 32.2879C34.5022 30.675 35.9429 29.9179 38.2422 29.3536C41.7835 28.888 45.708 28.3283 49.2493 27.8626C56.4241 27.3122 63.7835 27.5234 70.639 30.6829C74.2583 32.2155 77.2035 34.3172 80.8229 35.8499C85.7764 37.8621 89.5661 41.7739 89.9068 46.5323C89.9707 50.1481 91.092 53.1009 92.3056 56.4345C94.2714 61.1975 94.6121 65.9558 92.5612 70.8977C91.4896 73.1782 90.9857 76.1263 91.6315 78.7923C92.0928 80.6966 91.9864 81.9332 91.0213 82.977C88.4168 85.6338 86.8555 89.2449 84.7265 92.1884C82.5975 95.132 80.3762 97.6946 76.6362 99.016C71.2711 100.333 67.2827 97.2767 63.0033 94.6955ZM58.5464 79.6495C57.9929 77.3644 57.1483 75.5541 56.5948 73.269C55.658 71.078 55.1967 69.1737 54.2599 66.9826C52.294 62.2196 49.1502 60.9737 44.445 63.339C40.1231 65.6103 35.418 67.9755 32.3238 71.9629C29.9038 75.3814 27.3916 78.4189 24.9716 81.8373C20.2239 89.055 21.104 97.716 25.5395 104.294C26.8595 106.391 29.4357 106.969 30.7557 109.066C32.828 112.592 35.5886 113.932 39.8041 112.898C48.235 110.829 53.3517 105.134 57.333 98.1047C60.8246 92.4058 59.7316 86.218 58.5464 79.6495ZM57.2476 64.2318C61.016 59.6755 65.2598 55.4059 68.6449 50.9436C71.4481 47.4312 75.2023 44.4923 77.53 40.693C78.2042 40.124 79.1694 39.0802 78.6016 38.4125C76.5152 36.5036 73.6622 34.7828 71.1784 34.5854C69.0777 34.294 68.7726 36.3864 68.2829 37.7171C64.8694 45.4143 60.5972 52.9188 56.7082 60.3292C55.9276 62.1348 55.8211 63.3714 57.2476 64.2318ZM52.9043 58.0349C55.9843 55.6649 56.7791 52.2419 56.2398 48.3393C55.5159 43.675 53.9333 38.818 53.5926 34.0596C53.5287 30.4438 51.5203 30.5332 49.1287 30.7167C48.7455 30.8108 47.979 30.9989 47.5958 31.0929C45.5874 31.1823 45.3887 32.0381 45.85 33.9424C46.6803 37.3701 47.5107 40.7978 47.9578 44.3195C48.3907 49.4587 48.3482 54.3111 52.9043 58.0349ZM64.4366 62.0639C72.3921 59.7079 78.4598 54.5872 85.2798 50.8959C85.9539 50.3269 86.6281 49.758 86.0604 49.0903C85.1236 46.8992 84.2791 45.089 82.9591 42.992C82.2991 41.9435 81.3481 41.3699 80.4752 42.7946C79.0204 45.1692 76.9978 46.8761 75.1598 49.3447C71.6824 53.4261 67.3463 57.3148 64.4366 62.0639ZM87.9056 56.7074C87.643 53.9474 86.4933 54.2295 85.5282 55.2734C79.5669 59.1575 73.8966 62.5666 67.3676 65.783C65.927 66.5401 64.5786 67.6781 63.2302 68.816C62.556 69.3849 61.4986 70.048 62.1586 71.0965C62.8186 72.145 63.9683 71.8628 64.6425 71.2938C72.1225 68.651 79.0347 65.3406 85.3792 61.3624C87.494 60.0364 88.2746 58.2308 87.9056 56.7074ZM31.1668 40.3706C29.6056 43.9817 29.2862 47.6916 28.9669 51.4015C28.8605 52.6381 29.045 53.3998 30.5637 54.641C32.5579 56.1691 35.134 56.7473 36.454 58.8443C38.725 61.5149 40.6412 61.0446 43.4302 59.1496C39.4701 52.8586 35.5101 46.5676 31.1668 40.3706ZM45.0056 53.921C45.2611 46.5954 44.1681 40.4076 42.3087 34.408C42.1242 33.6463 41.8474 32.5038 40.6977 32.7859C38.7816 33.2562 36.8655 33.7265 35.7016 35.6261C34.5378 37.5258 34.6159 39.5241 35.8436 41.2402C38.7746 44.9594 41.7978 49.0593 45.0056 53.921ZM86.976 64.602C80.5392 68.1993 73.627 71.5098 67.0057 74.3453C72.8322 74.9328 77.9986 74.4718 83.5625 72.2992C87.6857 70.8838 88.2676 69.934 86.976 64.602ZM56.9635 31.2148C57.0132 36.448 59.3623 41.117 59.8875 46.637C62.4139 41.982 64.0816 37.1342 66.4093 33.3349C63.5564 31.6141 60.3984 31.9857 56.9635 31.2148ZM85.3793 83.1513C77.8071 85.4132 70.2348 87.6752 62.4426 82.3247C63.3793 84.5158 62.691 86.7022 65.1748 86.8996C68.1342 87.3838 70.8026 88.3429 73.7619 88.827C80.7381 89.1323 83.7116 87.999 85.3793 83.1513ZM64.8555 90.6094C66.4523 93.849 69.5039 94.7141 72.1723 95.6731C75.2239 96.5382 77.5375 94.3564 79.3755 91.8877C74.5781 93.8722 70.2065 90.9101 64.8555 90.6094ZM29.4779 58.539C29.9392 60.4433 30.3083 61.9667 30.6773 63.4901C31.5999 67.2986 31.5077 66.9178 34.6799 64.9287C36.4115 63.6967 36.7025 63.2218 34.7083 61.6938C33.1895 60.4525 31.7631 59.5921 29.4779 58.539Z" fill="#0A0A0A"/>
</g>
</svg>
