<?xml version="1.0" encoding="UTF-8" standalone="no"?>
<!-- Created with Inkscape (http://www.inkscape.org/) -->

<svg
   xmlns:dc="http://purl.org/dc/elements/1.1/"
   xmlns:cc="http://creativecommons.org/ns#"
   xmlns:rdf="http://www.w3.org/1999/02/22-rdf-syntax-ns#"
   xmlns:svg="http://www.w3.org/2000/svg"
   xmlns="http://www.w3.org/2000/svg"
   xmlns:xlink="http://www.w3.org/1999/xlink"
   xmlns:sodipodi="http://sodipodi.sourceforge.net/DTD/sodipodi-0.dtd"
   xmlns:inkscape="http://www.inkscape.org/namespaces/inkscape"
   width="49.112656mm"
   height="92.150017mm"
   viewBox="0 0 49.112656 92.150017"
   version="1.1"
   id="svg8"
   sodipodi:docname="dibujo2.svg"
   inkscape:version="0.92.3 (unknown)">
  <defs
     id="defs2">
    <linearGradient
       gradientTransform="matrix(0.90764673,0,0,0.90764673,-115.80316,349.88207)"
       inkscape:collect="always"
       xlink:href="#linearGradient1238"
       id="linearGradient1240"
       x1="260.41537"
       y1="-224.13246"
       x2="212.88435"
       y2="-226.13234"
       gradientUnits="userSpaceOnUse" />
    <linearGradient
       inkscape:collect="always"
       id="linearGradient1238">
      <stop
         style="stop-color:#ab191f;stop-opacity:1"
         offset="0"
         id="stop1234" />
      <stop
         style="stop-color:#e11e26;stop-opacity:0;"
         offset="1"
         id="stop1236" />
    </linearGradient>
    <linearGradient
       gradientTransform="matrix(0.90764673,0,0,0.90764673,-115.80316,349.88207)"
       inkscape:collect="always"
       xlink:href="#linearGradient1105"
       id="linearGradient1365"
       gradientUnits="userSpaceOnUse"
       x1="257.09604"
       y1="-185.80946"
       x2="231.74855"
       y2="-199.38849" />
    <linearGradient
       inkscape:collect="always"
       id="linearGradient1105">
      <stop
         style="stop-color:#353939;stop-opacity:1"
         offset="0"
         id="stop1101" />
      <stop
         style="stop-color:#acb2b2;stop-opacity:0;"
         offset="1"
         id="stop1103" />
    </linearGradient>
    <linearGradient
       inkscape:collect="always"
       xlink:href="#linearGradient1105"
       id="linearGradient953"
       gradientUnits="userSpaceOnUse"
       gradientTransform="matrix(0.90764673,0,0,0.90764673,-115.80316,349.88207)"
       x1="257.09604"
       y1="-185.80946"
       x2="231.74855"
       y2="-199.38849" />
  </defs>
  <sodipodi:namedview
     id="base"
     pagecolor="#ffffff"
     bordercolor="#666666"
     borderopacity="1.0"
     inkscape:pageopacity="0.0"
     inkscape:pageshadow="2"
     inkscape:zoom="0.35"
     inkscape:cx="998.78429"
     inkscape:cy="51.044736"
     inkscape:document-units="mm"
     inkscape:current-layer="layer1"
     showgrid="false"
     inkscape:window-width="1024"
     inkscape:window-height="573"
     inkscape:window-x="0"
     inkscape:window-y="0"
     inkscape:window-maximized="1"
     fit-margin-top="0"
     fit-margin-left="0"
     fit-margin-right="0"
     fit-margin-bottom="0" />
  <metadata
     id="metadata5">
    <rdf:RDF>
      <cc:Work
         rdf:about="">
        <dc:format>image/svg+xml</dc:format>
        <dc:type
           rdf:resource="http://purl.org/dc/dcmitype/StillImage" />
        <dc:title></dc:title>
      </cc:Work>
    </rdf:RDF>
  </metadata>
  <g
     inkscape:label="Capa 1"
     inkscape:groupmode="layer"
     id="layer1"
     transform="translate(-75.229393,-98.978563)">
    <ellipse
       ry="2.2595744"
       rx="15.851254"
       cy="107.29526"
       cx="100.37016"
       id="ellipse1038"
       style="opacity:1;fill:#e2e2e1;fill-opacity:1;stroke:none;stroke-width:0.22691169;stroke-linecap:round;stroke-linejoin:round;stroke-miterlimit:4;stroke-dasharray:none;stroke-dashoffset:0;stroke-opacity:1;paint-order:stroke markers fill" />
    <path
       inkscape:connector-curvature="0"
       style="opacity:1;fill:#acb2b2;fill-opacity:1;stroke:#000000;stroke-width:0.2056908;stroke-linecap:round;stroke-linejoin:round;stroke-miterlimit:4;stroke-dasharray:none;stroke-dashoffset:0;stroke-opacity:1;paint-order:stroke markers fill"
       d="m 117.21067,120.97647 c 0,0 -7.69108,2.55438 -17.11158,2.65497 -8.305765,0.0887 -17.241496,-2.53429 -17.241496,-2.53429 l -3.525455,5.05618 c -0.361679,0.12834 -0.362604,0.73669 -0.362604,2.1673 v 48.48716 c 0,5.51939 9.223183,9.96276 20.679464,9.96276 11.456281,0 20.679021,-4.44337 20.679021,-9.96276 v -48.48716 c 0,-1.44443 -4.7e-4,-2.13176 -0.3696,-2.35039 0.0145,-0.002 0.11154,-0.0236 0.11154,-0.0236 z m -0.51658,5.65752 c -2.56862,0.72968 -6.96434,1.78345 -14.45305,2.17184 4.62469,-0.33976 10.71544,-1.43841 14.45305,-2.17184 z m -34.376247,0.38725 c 3.442287,0.78712 9.602771,1.87636 17.421258,1.88832 -9.474906,0.27094 -14.61928,-0.97547 -17.421258,-1.88832 z"
       id="path1040" />
    <path
       inkscape:connector-curvature="0"
       style="opacity:1;fill:url(#linearGradient953);fill-opacity:1;stroke:#000000;stroke-width:0.2056908;stroke-linecap:round;stroke-linejoin:round;stroke-miterlimit:4;stroke-dasharray:none;stroke-dashoffset:0;stroke-opacity:1;paint-order:stroke markers fill"
       d="m 117.21067,120.97647 c 0,0 -7.69108,2.55438 -17.11158,2.65497 -8.305765,0.0887 -17.241496,-2.53429 -17.241496,-2.53429 l -3.525455,5.05618 c -0.361679,0.12834 -0.362604,0.73669 -0.362604,2.1673 v 48.48716 c 0,5.51939 9.223183,9.96276 20.679464,9.96276 11.456281,0 20.679021,-4.44337 20.679021,-9.96276 v -48.48716 c 0,-1.44443 -4.7e-4,-2.13176 -0.3696,-2.35039 0.0145,-0.002 0.11154,-0.0236 0.11154,-0.0236 z m -0.51658,5.65752 c -2.56862,0.72968 -6.96434,1.78345 -14.45305,2.17184 4.62469,-0.33976 10.71544,-1.43841 14.45305,-2.17184 z m -34.376247,0.38725 c 3.442287,0.78712 9.602771,1.87636 17.421258,1.88832 -9.474906,0.27094 -14.61928,-0.97547 -17.421258,-1.88832 z"
       id="path1359" />
    <path
       inkscape:connector-curvature="0"
       style="opacity:1;fill:url(#linearGradient1365);fill-opacity:1;stroke:#000000;stroke-width:0.2056908;stroke-linecap:round;stroke-linejoin:round;stroke-miterlimit:4;stroke-dasharray:none;stroke-dashoffset:0;stroke-opacity:1;paint-order:stroke markers fill"
       d="m 117.21067,120.97647 c 0,0 -7.69108,2.55438 -17.11158,2.65497 -8.305765,0.0887 -17.241496,-2.53429 -17.241496,-2.53429 l -3.525455,5.05618 c -0.361679,0.12834 -0.362604,0.73669 -0.362604,2.1673 v 48.48716 c 0,5.51939 9.223183,9.96276 20.679464,9.96276 11.456281,0 20.679021,-4.44337 20.679021,-9.96276 v -48.48716 c 0,-1.44443 -4.7e-4,-2.13176 -0.3696,-2.35039 0.0145,-0.002 0.11154,-0.0236 0.11154,-0.0236 z m -0.51658,5.65752 c -2.56862,0.72968 -6.96434,1.78345 -14.45305,2.17184 4.62469,-0.33976 10.71544,-1.43841 14.45305,-2.17184 z m -34.376247,0.38725 c 3.442287,0.78712 9.602771,1.87636 17.421258,1.88832 -9.474906,0.27094 -14.61928,-0.97547 -17.421258,-1.88832 z"
       id="path1363" />
    <path
       inkscape:connector-curvature="0"
       id="path1042"
       d="m 118.61789,109.28087 c 0,0 -8.24737,2.89895 -18.3493,3.01311 C 91.362075,112.39462 81.78,109.41783 81.78,109.41783 l -3.780458,5.73823 c -0.387846,0.14565 -0.388836,0.83607 -0.388836,2.45966 v 55.02769 c 0,6.26392 9.890318,11.30668 22.175257,11.30668 12.284927,0 22.174767,-5.04276 22.174767,-11.30668 v -55.02769 c 0,-1.63929 -7.2e-4,-2.41933 -0.39632,-2.66743 0.0155,-0.003 0.1196,-0.0268 0.1196,-0.0268 z m -0.55394,6.42069 c -2.75441,0.82813 -7.46809,2.02403 -15.49846,2.46481 4.9592,-0.38561 11.49049,-1.63247 15.49846,-2.46481 z m -36.862748,0.43949 c 3.691282,0.89329 10.297365,2.12947 18.68138,2.14305 -10.160243,0.30747 -15.676734,-1.10707 -18.68138,-2.14305 z"
       style="opacity:1;fill:#e11e26;fill-opacity:1;stroke:#000000;stroke-width:0.22691169;stroke-linecap:round;stroke-linejoin:round;stroke-miterlimit:4;stroke-dasharray:none;stroke-dashoffset:0;stroke-opacity:1;paint-order:stroke markers fill" />
    <path
       inkscape:connector-curvature="0"
       id="path1044"
       d="m 100.02986,103.35457 c -10.372727,0.057 -18.044424,3.15334 -18.044424,3.15334 L 81.78,109.41783 c 0,0 8.285901,2.78991 19.16777,2.63976 9.07457,-0.12521 17.67012,-2.77672 17.67012,-2.77672 l -0.33395,-2.59754 c 0,0 -8.16732,-3.1998 -17.24189,-3.32501 -0.34006,-0.004 -0.67758,-0.006 -1.01219,-0.003 z m 1.79971,1.69745 c 7.43231,-0.0393 11.74429,1.2158 14.13357,2.36864 -3.20359,0.93773 -9.2368,2.41929 -14.96706,2.27203 -7.138829,-0.18347 -12.938638,-1.44384 -16.182807,-2.32315 2.556941,-1.02047 7.215986,-2.08292 15.661247,-2.29688 0.46282,-0.0117 0.9144,-0.0184 1.35505,-0.0206 z"
       style="fill:#afafb2;fill-opacity:1;stroke:#000000;stroke-width:0.24014819px;stroke-linecap:butt;stroke-linejoin:miter;stroke-opacity:1" />
    <path
       style="opacity:1;fill:url(#linearGradient1240);fill-opacity:1;stroke:#000000;stroke-width:0.22691169;stroke-linecap:round;stroke-linejoin:round;stroke-miterlimit:4;stroke-dasharray:none;stroke-dashoffset:0;stroke-opacity:1;paint-order:stroke markers fill"
       d="m 118.61789,109.28087 c 0,0 -8.24737,2.89895 -18.3493,3.01311 C 91.362075,112.39462 81.78,109.41783 81.78,109.41783 l -3.780458,5.73823 c -0.387846,0.14565 -0.388836,0.83607 -0.388836,2.45966 v 55.02769 c 0,6.26392 9.890318,11.30668 22.175257,11.30668 12.284927,0 22.174767,-5.04276 22.174767,-11.30668 v -55.02769 c 0,-1.63929 -7.2e-4,-2.41933 -0.39632,-2.66743 0.0155,-0.003 0.1196,-0.0268 0.1196,-0.0268 z m -0.55394,6.42069 c -2.75441,0.82813 -7.46809,2.02403 -15.49846,2.46481 4.9592,-0.38561 11.49049,-1.63247 15.49846,-2.46481 z m -36.862748,0.43949 c 3.691282,0.89329 10.297365,2.12947 18.68138,2.14305 -10.160243,0.30747 -15.676734,-1.10707 -18.68138,-2.14305 z"
       id="path1232"
       inkscape:connector-curvature="0" />
    <path
       style="opacity:1;fill:none;fill-opacity:1;stroke:#ffffff;stroke-width:1.48127949;stroke-linecap:round;stroke-linejoin:round;stroke-miterlimit:4;stroke-dasharray:none;stroke-dashoffset:0;stroke-opacity:1;paint-order:stroke markers fill"
       d="m 106.80013,131.29414 c 0,0 -2.38201,5.36618 -1.84387,6.32497 -1.09136,-1.61779 -2.85131,-1.18011 -2.87962,-1.83055 -0.0286,-0.65839 -0.60092,-0.91597 -0.60092,-0.91597 -0.17178,0.83016 0.74403,2.6622 1.11618,3.17748 0.37213,0.51526 -2.3187,0.6584 -2.662211,0.11452 -0.715634,-0.0572 -1.574439,-0.97329 -1.259565,-0.25763 0.220425,0.50094 0.805998,1.30887 1.529936,1.77897 -1.120402,0.80557 -2.048624,1.83103 -2.604803,2.9864 -1.474387,-0.67455 -3.275764,-0.64447 -4.987496,-0.11705 0.09452,-0.85634 -0.180662,-1.82295 -0.438693,-2.29974 -0.358533,-0.66247 -0.171124,0.54095 -0.553527,1.13227 0.210429,0.58471 -1.500921,2.59921 -1.672473,2.00886 -0.171563,-0.59035 -1.023641,-2.37208 -1.759288,-2.72184 0,0 -0.144459,0.59659 0.340828,1.00248 0.4794,0.40103 -0.902576,1.51822 -0.318077,3.31169 -0.411031,-0.97805 -5.921346,-2.24727 -5.922869,-2.24763 0,0 -0.691688,1.13257 0.496675,0.98004 1.188356,-0.15256 4.943036,2.21985 4.54461,2.19826 -0.398447,-0.0216 -1.002696,1.17743 -1.591782,1.85826 -0.589076,0.68086 -1.892741,1.34655 -1.511366,1.39046 0.381385,0.044 0.949908,0.15994 1.295051,0.07 0.345171,-0.0897 0.792021,0.003 0.792021,0.003 0,0 9.07e-4,0.17163 9.07e-4,0.19607 -0.606622,3.2013 0.415813,6.6903 3.50747,7.93728 7.340744,2.96077 12.139202,3.03607 14.097782,1.62532 0.64824,0.4453 1.2768,0.63135 1.89488,0.60371 2.45131,-0.10966 5.72102,-4.10416 8.07066,-12.82075 0.86569,-3.21147 -1.11814,-6.1511 -3.9015,-7.72873 -0.11455,-0.0901 -0.40269,-0.31864 -0.40269,-0.31864 0,0 0.20045,-0.42934 0.4867,-0.65834 0.28627,-0.22901 0.54393,-0.77296 0.74431,-1.11646 0.20036,-0.34351 -1.14495,0.31489 -2.06102,0.37215 -0.91601,0.0572 -2.26154,-0.20043 -2.49055,0.14308 -0.22901,0.34352 0.17174,-4.26508 1.03051,-5.15249 0.85879,-0.88741 -0.4864,-1.03075 -0.4864,-1.03075 z m -14.402564,11.3302 c -0.05578,0.0186 -0.111871,0.037 -0.1675,0.0567 0.0556,-0.0197 0.111611,-0.0381 0.1675,-0.0567 z m -0.376311,0.13393 c -0.05839,0.0221 -0.116469,0.0445 -0.174422,0.0676 0.05801,-0.0232 0.116113,-0.0455 0.174422,-0.0676 z m -0.36411,0.1459 c -0.06774,0.0287 -0.135004,0.0588 -0.202161,0.0891 0.06709,-0.0303 0.134407,-0.0602 0.202161,-0.0891 z m -0.369108,0.16498 c -0.08474,0.04 -0.168518,0.0822 -0.25208,0.12453 0.08362,-0.0425 0.167359,-0.0845 0.25208,-0.12453 z m -0.451466,0.22851 c -0.08277,0.0444 -0.16534,0.0892 -0.246819,0.13588 0.08156,-0.0466 0.163986,-0.0915 0.246819,-0.13588 z m -0.404872,0.22935 c -0.06615,0.0395 -0.132295,0.0793 -0.197462,0.12035 0.06513,-0.041 0.131211,-0.0807 0.197462,-0.12035 z m -0.351358,0.21935 c -0.06326,0.0414 -0.125642,0.0839 -0.187735,0.12675 0.06213,-0.0427 0.124485,-0.0854 0.187735,-0.12675 z m -0.33722,0.23073 c -0.06913,0.0495 -0.136835,0.10041 -0.204375,0.15168 0.06754,-0.0511 0.135266,-0.1022 0.204375,-0.15168 z m -0.318619,0.23791 c -0.102088,0.0799 -0.202319,0.16158 -0.300346,0.24515 0.09803,-0.0836 0.198238,-0.16527 0.300346,-0.24515 z m -0.401294,0.33446 c -0.06764,0.0596 -0.134752,0.11934 -0.200208,0.18053 0.06539,-0.0612 0.132556,-0.12106 0.200208,-0.18053 z m -0.309744,0.28563 c -0.06082,0.059 -0.120673,0.11871 -0.17943,0.17916 0.05877,-0.0603 0.118533,-0.1202 0.17943,-0.17916 z m -0.281771,0.28591 c -0.06148,0.0656 -0.121326,0.13217 -0.180233,0.19938 0.05895,-0.0673 0.118747,-0.13381 0.180233,-0.19938 z m -0.261497,0.29173 c -0.08474,0.0998 -0.16707,0.20069 -0.245698,0.30367 -0.07624,0.0999 -0.149646,0.20261 -0.221295,0.30669 0.07157,-0.1041 0.14501,-0.20681 0.221295,-0.30669 0.07866,-0.10298 0.161005,-0.20394 0.245698,-0.30367 z m -0.507476,0.66943 c -0.06754,0.1 -0.132865,0.2019 -0.196069,0.30532 0.06316,-0.10342 0.128594,-0.20531 0.196069,-0.30532 z m -0.237944,0.3752 c -0.05979,0.1 -0.117593,0.20115 -0.173333,0.30395 0.0556,-0.10287 0.113689,-0.20398 0.173333,-0.30395 z m -0.214085,0.38132 c -0.04401,0.0829 -0.08624,0.16685 -0.127558,0.25153 0.0412,-0.0848 0.08371,-0.16851 0.127558,-0.25153 z m -0.188577,0.37825 c -0.04224,0.0902 -0.08268,0.18136 -0.122017,0.27316 0.03914,-0.0918 0.07997,-0.18291 0.122017,-0.27316 z m -0.191911,0.44176 c -0.02168,0.0537 -0.04233,0.10765 -0.06298,0.16168 0.02065,-0.0541 0.0413,-0.1081 0.06298,-0.16168 z m -0.178299,0.48142 c -0.0094,0.025 -0.01719,0.0501 -0.0255,0.0753 0.0075,-0.0252 0.01701,-0.0501 0.0255,-0.0753 z"
       id="path1241"
       inkscape:connector-curvature="0" />
    <path
       style="opacity:1;fill:#e01d25;fill-opacity:1;stroke:none;stroke-width:0.70402092;stroke-linecap:round;stroke-linejoin:round;stroke-miterlimit:4;stroke-dasharray:none;stroke-dashoffset:0;stroke-opacity:1;paint-order:stroke markers fill"
       d="m 90.15112,156.90055 c 7.724382,3.11552 12.51711,2.90263 13.99796,1.12986 1.49145,-1.78547 0.58672,-5.60238 -4.542132,-13.51229 -2.480218,-3.82511 -8.661328,-2.22584 -11.272483,1.19346 -2.611158,3.41932 -2.407373,9.48528 1.816655,11.18897 z"
       id="path1121"
       inkscape:connector-curvature="0"
       sodipodi:nodetypes="sssss" />
    <path
       style="fill:#47b049;fill-opacity:1;stroke:none;stroke-width:0.13222496px;stroke-linecap:butt;stroke-linejoin:miter;stroke-opacity:1"
       d="m 82.921129,142.85645 c 0,0 5.289723,1.21827 5.684205,2.15696 -0.560907,-1.72108 0.765137,-2.79315 0.305069,-3.17799 -0.465695,-0.38954 -0.327088,-0.96197 -0.327088,-0.96197 0.70594,0.33563 1.523847,2.04535 1.688468,2.61187 0.164638,0.56652 1.806888,-1.36673 1.604946,-1.92783 0.366971,-0.56746 0.186993,-1.72217 0.531046,-1.08646 0.247624,0.45756 0.511749,1.38523 0.421021,2.20701 -1.763504,0.54338 -3.427074,1.636 -4.494285,3.03351 -0.777158,1.0177 -1.302686,2.2702 -1.549348,3.57199 8.2e-5,-0.0234 -9.08e-4,-0.18818 -9.08e-4,-0.18818 0,0 -0.428844,-0.0902 -0.760063,-0.003 -0.331227,0.0862 -0.876705,-0.0252 -1.242695,-0.0674 -0.365991,-0.0421 0.88491,-0.6808 1.450201,-1.33419 0.565309,-0.65336 1.145277,-1.80393 1.527628,-1.78322 0.382355,0.0207 -3.220806,-2.25614 -4.361201,-2.10975 -1.140386,0.14638 -0.476596,-0.94047 -0.476596,-0.94047 z"
       id="path1125"
       inkscape:connector-curvature="0" />
    <path
       style="opacity:1;fill:#ed9073;fill-opacity:1;stroke:none;stroke-width:0.73533517;stroke-linecap:round;stroke-linejoin:round;stroke-miterlimit:4;stroke-dasharray:none;stroke-dashoffset:0;stroke-opacity:1;paint-order:stroke markers fill"
       d="m 93.459175,153.13801 c 3.218968,2.45816 7.735465,4.02275 9.173835,3.71165 -0.71736,-1.9573 -2.59023,-5.65948 -5.809216,-8.11764 -3.21897,-2.45816 -6.581656,-3.46459 -7.510768,-2.24789 -0.92913,1.21666 0.927171,4.19571 4.146149,6.65388 z"
       id="path1220"
       inkscape:connector-curvature="0"
       sodipodi:nodetypes="scscs" />
    <path
       style="opacity:1;fill:#eb5640;fill-opacity:1;stroke:none;stroke-width:0.56463242;stroke-linecap:round;stroke-linejoin:round;stroke-miterlimit:4;stroke-dasharray:none;stroke-dashoffset:0;stroke-opacity:1;paint-order:stroke markers fill"
       d="m 94.612485,153.20911 c 2.471712,1.88751 5.939725,3.08888 7.044205,2.85002 -0.55081,-1.50295 -1.98893,-4.3457 -4.460652,-6.23322 -2.471703,-1.8875 -5.053777,-2.66029 -5.767205,-1.72606 -0.713429,0.93424 0.71194,3.22174 3.183652,5.10926 z"
       id="path1461"
       inkscape:connector-curvature="0"
       sodipodi:nodetypes="scscs" />
    <path
       style="opacity:1;fill:#eb5640;fill-opacity:1;stroke:none;stroke-width:0.56463242;stroke-linecap:round;stroke-linejoin:round;stroke-miterlimit:4;stroke-dasharray:none;stroke-dashoffset:0;stroke-opacity:1;paint-order:stroke markers fill"
       d="m 94.612485,153.20911 c 2.471712,1.88751 5.939725,3.08888 7.044205,2.85002 -0.55081,-1.50295 -1.98893,-4.3457 -4.460652,-6.23322 -2.471703,-1.8875 -5.053777,-2.66029 -5.767205,-1.72606 -0.713429,0.93424 0.71194,3.22174 3.183652,5.10926 z"
       id="path1463"
       inkscape:connector-curvature="0"
       sodipodi:nodetypes="scscs" />
    <path
       sodipodi:nodetypes="scscs"
       inkscape:connector-curvature="0"
       id="path1225"
       d="m 92.300264,149.37581 c -0.689903,-0.52684 -1.268273,-1.37239 -1.285119,-1.68736 0.445182,0.0379 1.316342,0.2162 2.006254,0.74304 0.689901,0.52686 1.08776,1.16535 0.888622,1.42611 -0.199128,0.26076 -0.919836,0.0451 -1.609757,-0.48179 z"
       style="opacity:1;fill:#ed9073;fill-opacity:1;stroke:none;stroke-width:0.15760143;stroke-linecap:round;stroke-linejoin:round;stroke-miterlimit:4;stroke-dasharray:none;stroke-dashoffset:0;stroke-opacity:1;paint-order:stroke markers fill" />
    <path
       sodipodi:nodetypes="sssss"
       inkscape:connector-curvature="0"
       id="path1213"
       d="m 113.24316,146.73618 c -2.2548,8.36482 -5.39237,12.19815 -7.74475,12.30334 -2.36918,0.10599 -4.90172,-3.05622 -8.136872,-12.30334 -1.564465,-4.47174 3.555212,-8.57803 7.940812,-8.57803 4.38558,0 9.17383,4.00378 7.94081,8.57803 z"
       style="opacity:1;fill:#e01d25;fill-opacity:1;stroke:none;stroke-width:0.72547269;stroke-linecap:round;stroke-linejoin:round;stroke-miterlimit:4;stroke-dasharray:none;stroke-dashoffset:0;stroke-opacity:1;paint-order:stroke markers fill" />
    <path
       sodipodi:nodetypes="csccccssscccccccccccccccsccc"
       inkscape:connector-curvature="0"
       id="path1215"
       d="m 103.92096,140.93669 c 0,0 -1.15376,1.07137 -0.76917,2.38993 0.38458,1.31859 0.98893,1.48342 0.98893,1.48342 0,0 -0.16482,-0.43952 -0.0549,-0.90652 0.10988,-0.46702 1.20869,-1.48342 1.56582,-2.11524 0.35713,-0.63182 1.40098,0.90653 2.17015,1.07134 0.71426,0.0549 2.74707,0.60437 2.08778,0 -0.6593,-0.60434 -1.09882,-1.2087 -1.45594,-1.7581 -0.35712,-0.54941 -0.38459,-0.21977 0.98895,-0.0549 1.37352,0.16483 1.7581,0.65929 2.19764,0.85159 0.43951,0.1923 0.10988,-0.6593 -0.13734,-0.93402 -0.24726,-0.2747 -2.38996,-1.95039 -2.38996,-1.95039 0,0 0.1923,-0.41206 0.467,-0.63183 0.27472,-0.21977 0.52194,-0.74171 0.71424,-1.07135 0.19231,-0.32965 -1.09882,0.30218 -1.97789,0.35711 -0.87905,0.0549 -2.17018,-0.19229 -2.38993,0.13734 -0.21977,0.32967 0.16482,-4.09308 0.98894,-4.94468 0.82411,-0.85158 -0.46699,-0.98895 -0.46699,-0.98895 0,0 -2.38995,5.38424 -1.73065,6.12595 -1.04389,-1.62076 -2.77451,-1.18123 -2.80201,-1.81305 -0.0275,-0.63184 -0.57687,-0.87906 -0.57687,-0.87906 -0.16482,0.79665 0.71423,2.55474 1.07135,3.04923 0.35712,0.49446 -2.22511,0.6318 -2.554764,0.10988 -0.686754,-0.0549 -1.510879,-0.93401 -1.208704,-0.24724 0.302182,0.68676 1.318593,1.97789 2.417408,2.06029 1.09883,0.0824 -1.01638,0.49446 -1.40099,1.62077 -0.384596,1.12628 -0.164837,1.81306 0.60435,0.87904 1.29112,-0.30217 3.65358,-1.84051 3.65358,-1.84051 z"
       style="fill:#47b049;fill-opacity:1;stroke:none;stroke-width:0.13625391px;stroke-linecap:butt;stroke-linejoin:miter;stroke-opacity:1" />
    <path
       sodipodi:nodetypes="scscs"
       inkscape:connector-curvature="0"
       id="path1130"
       d="m 99.746271,145.41783 c 0,0.30344 -0.199718,0.50085 -0.267356,0.73394 -0.174478,-0.21367 -0.364475,-0.4305 -0.364475,-0.73394 0,-0.30343 0.141439,-0.54941 0.315907,-0.54941 0.174477,0 0.315924,0.24598 0.315924,0.54941 z"
       style="opacity:1;fill:#ffffff;fill-opacity:1;stroke:none;stroke-width:0.81314617;stroke-linecap:round;stroke-linejoin:round;stroke-miterlimit:4;stroke-dasharray:none;stroke-dashoffset:0;stroke-opacity:1;paint-order:stroke markers fill" />
    <path
       style="opacity:1;fill:#ffffff;fill-opacity:1;stroke:none;stroke-width:0.81314617;stroke-linecap:round;stroke-linejoin:round;stroke-miterlimit:4;stroke-dasharray:none;stroke-dashoffset:0;stroke-opacity:1;paint-order:stroke markers fill"
       d="m 111.75068,144.79626 c 0,0.30341 -0.19972,0.50084 -0.26736,0.73393 -0.17447,-0.21367 -0.36447,-0.43052 -0.36447,-0.73393 0,-0.30344 0.14143,-0.54944 0.31591,-0.54944 0.17448,0 0.31592,0.246 0.31592,0.54944 z"
       id="path1183"
       inkscape:connector-curvature="0"
       sodipodi:nodetypes="scscs" />
    <path
       style="opacity:1;fill:#ffffff;fill-opacity:1;stroke:none;stroke-width:0.81314617;stroke-linecap:round;stroke-linejoin:round;stroke-miterlimit:4;stroke-dasharray:none;stroke-dashoffset:0;stroke-opacity:1;paint-order:stroke markers fill"
       d="m 107.2053,145.57322 c 0,0.30345 -0.19969,0.50087 -0.26734,0.73395 -0.17447,-0.21367 -0.36446,-0.4305 -0.36446,-0.73395 0,-0.30342 0.14143,-0.5494 0.3159,-0.5494 0.17447,0 0.3159,0.24598 0.3159,0.5494 z"
       id="path1185"
       inkscape:connector-curvature="0"
       sodipodi:nodetypes="scscs" />
    <path
       style="opacity:1;fill:#ffffff;fill-opacity:1;stroke:none;stroke-width:0.81314617;stroke-linecap:round;stroke-linejoin:round;stroke-miterlimit:4;stroke-dasharray:none;stroke-dashoffset:0;stroke-opacity:1;paint-order:stroke markers fill"
       d="m 103.0096,145.72862 c 0,0.30345 -0.19973,0.50086 -0.26735,0.73395 -0.17448,-0.21367 -0.36447,-0.4305 -0.36447,-0.73395 0,-0.30342 0.14142,-0.54942 0.31592,-0.54942 0.17446,0 0.3159,0.246 0.3159,0.54942 z"
       id="path1187"
       inkscape:connector-curvature="0"
       sodipodi:nodetypes="scscs" />
    <path
       style="opacity:1;fill:#ffffff;fill-opacity:1;stroke:none;stroke-width:0.81314617;stroke-linecap:round;stroke-linejoin:round;stroke-miterlimit:4;stroke-dasharray:none;stroke-dashoffset:0;stroke-opacity:1;paint-order:stroke markers fill"
       d="m 99.746271,148.91426 c 0,0.30343 -0.199718,0.50086 -0.267356,0.73395 -0.174478,-0.21367 -0.364475,-0.43052 -0.364475,-0.73395 0,-0.30344 0.141439,-0.54942 0.315907,-0.54942 0.174477,0 0.315924,0.24598 0.315924,0.54942 z"
       id="path1189"
       inkscape:connector-curvature="0"
       sodipodi:nodetypes="scscs" />
    <path
       style="opacity:1;fill:#ffffff;fill-opacity:1;stroke:none;stroke-width:0.81314617;stroke-linecap:round;stroke-linejoin:round;stroke-miterlimit:4;stroke-dasharray:none;stroke-dashoffset:0;stroke-opacity:1;paint-order:stroke markers fill"
       d="m 104.79668,148.72001 c 0,0.30344 -0.19974,0.50085 -0.26737,0.73396 -0.17447,-0.21369 -0.36446,-0.43052 -0.36446,-0.73396 0,-0.30342 0.14143,-0.5494 0.3159,-0.5494 0.17447,0 0.31593,0.24598 0.31593,0.5494 z"
       id="path1191"
       inkscape:connector-curvature="0"
       sodipodi:nodetypes="scscs" />
    <path
       style="opacity:1;fill:#ffffff;fill-opacity:1;stroke:none;stroke-width:0.81314617;stroke-linecap:round;stroke-linejoin:round;stroke-miterlimit:4;stroke-dasharray:none;stroke-dashoffset:0;stroke-opacity:1;paint-order:stroke markers fill"
       d="m 109.53627,148.25384 c 0,0.30342 -0.19972,0.50083 -0.26735,0.73392 -0.17449,-0.21367 -0.36447,-0.4305 -0.36447,-0.73392 0,-0.30344 0.14142,-0.54943 0.31591,-0.54943 0.17447,0 0.31591,0.24599 0.31591,0.54943 z"
       id="path1193"
       inkscape:connector-curvature="0"
       sodipodi:nodetypes="scscs" />
    <path
       style="opacity:1;fill:#ffffff;fill-opacity:1;stroke:none;stroke-width:0.81314617;stroke-linecap:round;stroke-linejoin:round;stroke-miterlimit:4;stroke-dasharray:none;stroke-dashoffset:0;stroke-opacity:1;paint-order:stroke markers fill"
       d="m 112.6442,147.70993 c 0,0.30344 -0.19971,0.50086 -0.26734,0.73395 -0.17447,-0.21367 -0.36447,-0.43051 -0.36447,-0.73395 0,-0.30342 0.14144,-0.5494 0.3159,-0.5494 0.17448,0 0.31591,0.24598 0.31591,0.5494 z"
       id="path1195"
       inkscape:connector-curvature="0"
       sodipodi:nodetypes="scscs" />
    <path
       style="opacity:1;fill:#ffffff;fill-opacity:1;stroke:none;stroke-width:0.81314617;stroke-linecap:round;stroke-linejoin:round;stroke-miterlimit:4;stroke-dasharray:none;stroke-dashoffset:0;stroke-opacity:1;paint-order:stroke markers fill"
       d="m 110.35211,150.97327 c 0,0.30344 -0.19972,0.50086 -0.26736,0.73396 -0.17446,-0.21368 -0.36448,-0.43052 -0.36448,-0.73396 0,-0.30342 0.14144,-0.5494 0.31592,-0.5494 0.17448,0 0.31592,0.24598 0.31592,0.5494 z"
       id="path1197"
       inkscape:connector-curvature="0"
       sodipodi:nodetypes="scscs" />
    <path
       style="opacity:1;fill:#ffffff;fill-opacity:1;stroke:none;stroke-width:0.81314617;stroke-linecap:round;stroke-linejoin:round;stroke-miterlimit:4;stroke-dasharray:none;stroke-dashoffset:0;stroke-opacity:1;paint-order:stroke markers fill"
       d="m 106.77797,151.24522 c 0,0.30343 -0.19971,0.50085 -0.26734,0.73395 -0.17448,-0.21368 -0.36449,-0.43052 -0.36449,-0.73395 0,-0.30343 0.14145,-0.54941 0.31592,-0.54941 0.17448,0 0.31591,0.24598 0.31591,0.54941 z"
       id="path1199"
       inkscape:connector-curvature="0"
       sodipodi:nodetypes="scscs" />
    <path
       style="opacity:1;fill:#ffffff;fill-opacity:1;stroke:none;stroke-width:0.81314617;stroke-linecap:round;stroke-linejoin:round;stroke-miterlimit:4;stroke-dasharray:none;stroke-dashoffset:0;stroke-opacity:1;paint-order:stroke markers fill"
       d="m 101.30024,150.89557 c 0,0.30344 -0.19972,0.50087 -0.26736,0.73395 -0.17446,-0.21367 -0.36448,-0.43051 -0.36448,-0.73395 0,-0.30342 0.14145,-0.54941 0.31592,-0.54941 0.17448,0 0.31592,0.24599 0.31592,0.54941 z"
       id="path1201"
       inkscape:connector-curvature="0"
       sodipodi:nodetypes="scscs" />
    <path
       style="opacity:1;fill:#ffffff;fill-opacity:1;stroke:none;stroke-width:0.81314617;stroke-linecap:round;stroke-linejoin:round;stroke-miterlimit:4;stroke-dasharray:none;stroke-dashoffset:0;stroke-opacity:1;paint-order:stroke markers fill"
       d="m 103.86427,153.03228 c 0,0.30343 -0.19971,0.50086 -0.26734,0.73395 -0.17447,-0.21367 -0.36446,-0.43052 -0.36446,-0.73395 0,-0.30344 0.14143,-0.54941 0.3159,-0.54941 0.17447,0 0.3159,0.24597 0.3159,0.54941 z"
       id="path1203"
       inkscape:connector-curvature="0"
       sodipodi:nodetypes="scscs" />
    <path
       style="opacity:1;fill:#ffffff;fill-opacity:1;stroke:none;stroke-width:0.81314617;stroke-linecap:round;stroke-linejoin:round;stroke-miterlimit:4;stroke-dasharray:none;stroke-dashoffset:0;stroke-opacity:1;paint-order:stroke markers fill"
       d="m 109.03122,153.45963 c 0,0.30342 -0.1997,0.50084 -0.26735,0.73393 -0.17446,-0.21367 -0.36448,-0.43051 -0.36448,-0.73393 0,-0.30344 0.14146,-0.54942 0.31592,-0.54942 0.17448,0 0.31591,0.24598 0.31591,0.54942 z"
       id="path1205"
       inkscape:connector-curvature="0"
       sodipodi:nodetypes="scscs" />
    <path
       style="opacity:1;fill:#ffffff;fill-opacity:1;stroke:none;stroke-width:0.81314617;stroke-linecap:round;stroke-linejoin:round;stroke-miterlimit:4;stroke-dasharray:none;stroke-dashoffset:0;stroke-opacity:1;paint-order:stroke markers fill"
       d="m 106.15639,154.74164 c 0,0.30344 -0.19971,0.50085 -0.26736,0.73395 -0.17447,-0.21366 -0.36446,-0.43051 -0.36446,-0.73395 0,-0.30342 0.14143,-0.5494 0.3159,-0.5494 0.17448,0 0.31592,0.24598 0.31592,0.5494 z"
       id="path1207"
       inkscape:connector-curvature="0"
       sodipodi:nodetypes="scscs" />
    <path
       style="opacity:1;fill:#ffffff;fill-opacity:1;stroke:none;stroke-width:0.81314617;stroke-linecap:round;stroke-linejoin:round;stroke-miterlimit:4;stroke-dasharray:none;stroke-dashoffset:0;stroke-opacity:1;paint-order:stroke markers fill"
       d="m 103.0096,155.20783 c 0,0.30343 -0.19973,0.50085 -0.26735,0.73395 -0.17448,-0.21366 -0.36447,-0.43052 -0.36447,-0.73395 0,-0.30343 0.14142,-0.54939 0.31592,-0.54939 0.17446,0 0.3159,0.24596 0.3159,0.54939 z"
       id="path1209"
       inkscape:connector-curvature="0"
       sodipodi:nodetypes="scscs" />
    <path
       style="opacity:1;fill:#ffffff;fill-opacity:1;stroke:none;stroke-width:0.81314617;stroke-linecap:round;stroke-linejoin:round;stroke-miterlimit:4;stroke-dasharray:none;stroke-dashoffset:0;stroke-opacity:1;paint-order:stroke markers fill"
       d="m 108.17655,156.14021 c 0,0.30344 -0.19971,0.50086 -0.26735,0.73395 -0.17448,-0.21366 -0.36448,-0.43051 -0.36448,-0.73395 0,-0.30343 0.14144,-0.5494 0.3159,-0.5494 0.1745,0 0.31593,0.24597 0.31593,0.5494 z"
       id="path1211"
       inkscape:connector-curvature="0"
       sodipodi:nodetypes="scscs" />
    <path
       sodipodi:nodetypes="scscs"
       inkscape:connector-curvature="0"
       id="path1141"
       d="m 105.22401,156.87835 c 0,0.30344 -0.19971,0.50085 -0.26737,0.73394 -0.17446,-0.21366 -0.36447,-0.4305 -0.36447,-0.73394 0,-0.30342 0.14144,-0.54942 0.31592,-0.54942 0.17448,0 0.31592,0.246 0.31592,0.54942 z"
       style="opacity:1;fill:#ffffff;fill-opacity:1;stroke:none;stroke-width:0.81314617;stroke-linecap:round;stroke-linejoin:round;stroke-miterlimit:4;stroke-dasharray:none;stroke-dashoffset:0;stroke-opacity:1;paint-order:stroke markers fill" />
    <ellipse
       ry="1.369439"
       rx="1.3009669"
       cy="166.26907"
       cx="104.48144"
       id="ellipse1540"
       style="opacity:1;fill:#ffffff;fill-opacity:0.93333333;stroke:none;stroke-width:1.99682283;stroke-linecap:round;stroke-linejoin:round;stroke-miterlimit:4;stroke-dasharray:none;stroke-dashoffset:0;stroke-opacity:1;paint-order:stroke markers fill" />
    <ellipse
       ry="1.369439"
       rx="1.3009669"
       cy="162.2977"
       cx="113.24581"
       id="ellipse1542"
       style="opacity:1;fill:#ffffff;fill-opacity:0.93333333;stroke:none;stroke-width:1.99682283;stroke-linecap:round;stroke-linejoin:round;stroke-miterlimit:4;stroke-dasharray:none;stroke-dashoffset:0;stroke-opacity:1;paint-order:stroke markers fill" />
    <ellipse
       ry="1.369439"
       rx="1.3009669"
       cy="169.82962"
       cx="111.19167"
       id="ellipse1544"
       style="opacity:1;fill:#ffffff;fill-opacity:0.93333333;stroke:none;stroke-width:1.99682283;stroke-linecap:round;stroke-linejoin:round;stroke-miterlimit:4;stroke-dasharray:none;stroke-dashoffset:0;stroke-opacity:1;paint-order:stroke markers fill" />
    <ellipse
       ry="1.369439"
       rx="1.3009669"
       cy="170.92519"
       cx="117.90193"
       id="ellipse1546"
       style="opacity:1;fill:#ffffff;fill-opacity:0.93333333;stroke:none;stroke-width:1.99682283;stroke-linecap:round;stroke-linejoin:round;stroke-miterlimit:4;stroke-dasharray:none;stroke-dashoffset:0;stroke-opacity:1;paint-order:stroke markers fill" />
    <ellipse
       ry="0.40109932"
       rx="0.38104433"
       cy="166.27715"
       cx="116.64309"
       id="ellipse1548"
       style="opacity:1;fill:#ffffff;fill-opacity:0.93333333;stroke:none;stroke-width:0.58485579;stroke-linecap:round;stroke-linejoin:round;stroke-miterlimit:4;stroke-dasharray:none;stroke-dashoffset:0;stroke-opacity:1;paint-order:stroke markers fill" />
    <ellipse
       ry="0.40109932"
       rx="0.38104433"
       cy="164.67938"
       cx="108.89638"
       id="ellipse1550"
       style="opacity:1;fill:#ffffff;fill-opacity:0.93333333;stroke:none;stroke-width:0.58485579;stroke-linecap:round;stroke-linejoin:round;stroke-miterlimit:4;stroke-dasharray:none;stroke-dashoffset:0;stroke-opacity:1;paint-order:stroke markers fill" />
    <ellipse
       ry="0.40109932"
       rx="0.38104433"
       cy="171.79668"
       cx="106.95972"
       id="ellipse1552"
       style="opacity:1;fill:#ffffff;fill-opacity:0.93333333;stroke:none;stroke-width:0.58485579;stroke-linecap:round;stroke-linejoin:round;stroke-miterlimit:4;stroke-dasharray:none;stroke-dashoffset:0;stroke-opacity:1;paint-order:stroke markers fill" />
    <ellipse
       ry="0.40109932"
       rx="0.38104433"
       cy="173.8786"
       cx="113.2539"
       id="ellipse1554"
       style="opacity:1;fill:#ffffff;fill-opacity:0.93333333;stroke:none;stroke-width:0.58485579;stroke-linecap:round;stroke-linejoin:round;stroke-miterlimit:4;stroke-dasharray:none;stroke-dashoffset:0;stroke-opacity:1;paint-order:stroke markers fill" />
    <ellipse
       ry="1.369439"
       rx="1.3009669"
       cy="123.85322"
       cx="82.423119"
       id="ellipse1572"
       style="opacity:1;fill:#ffffff;fill-opacity:0.93333333;stroke:none;stroke-width:1.99682283;stroke-linecap:round;stroke-linejoin:round;stroke-miterlimit:4;stroke-dasharray:none;stroke-dashoffset:0;stroke-opacity:1;paint-order:stroke markers fill" />
    <ellipse
       style="opacity:1;fill:#ffffff;fill-opacity:0.93333333;stroke:none;stroke-width:1.99682283;stroke-linecap:round;stroke-linejoin:round;stroke-miterlimit:4;stroke-dasharray:none;stroke-dashoffset:0;stroke-opacity:1;paint-order:stroke markers fill"
       id="ellipse1574"
       cx="82.423119"
       cy="123.85322"
       rx="1.3009669"
       ry="1.369439" />
    <ellipse
       ry="1.369439"
       rx="1.3009669"
       cy="127.13986"
       cx="88.790993"
       id="ellipse1576"
       style="opacity:1;fill:#ffffff;fill-opacity:0.93333333;stroke:none;stroke-width:1.99682283;stroke-linecap:round;stroke-linejoin:round;stroke-miterlimit:4;stroke-dasharray:none;stroke-dashoffset:0;stroke-opacity:1;paint-order:stroke markers fill" />
    <ellipse
       style="opacity:1;fill:#ffffff;fill-opacity:0.93333333;stroke:none;stroke-width:1.99682283;stroke-linecap:round;stroke-linejoin:round;stroke-miterlimit:4;stroke-dasharray:none;stroke-dashoffset:0;stroke-opacity:1;paint-order:stroke markers fill"
       id="ellipse1578"
       cx="88.790993"
       cy="127.13986"
       rx="1.3009669"
       ry="1.369439" />
    <ellipse
       ry="1.369439"
       rx="1.3009669"
       cy="133.02846"
       cx="83.997978"
       id="ellipse1580"
       style="opacity:1;fill:#ffffff;fill-opacity:0.93333333;stroke:none;stroke-width:1.99682283;stroke-linecap:round;stroke-linejoin:round;stroke-miterlimit:4;stroke-dasharray:none;stroke-dashoffset:0;stroke-opacity:1;paint-order:stroke markers fill" />
    <ellipse
       style="opacity:1;fill:#ffffff;fill-opacity:0.93333333;stroke:none;stroke-width:1.99682283;stroke-linecap:round;stroke-linejoin:round;stroke-miterlimit:4;stroke-dasharray:none;stroke-dashoffset:0;stroke-opacity:1;paint-order:stroke markers fill"
       id="ellipse1582"
       cx="83.997978"
       cy="133.02846"
       rx="1.3009669"
       ry="1.369439" />
    <ellipse
       ry="1.369439"
       rx="1.3009669"
       cy="132.75456"
       cx="94.474174"
       id="ellipse1584"
       style="opacity:1;fill:#ffffff;fill-opacity:0.93333333;stroke:none;stroke-width:1.99682283;stroke-linecap:round;stroke-linejoin:round;stroke-miterlimit:4;stroke-dasharray:none;stroke-dashoffset:0;stroke-opacity:1;paint-order:stroke markers fill" />
    <ellipse
       style="opacity:1;fill:#ffffff;fill-opacity:0.93333333;stroke:none;stroke-width:1.99682283;stroke-linecap:round;stroke-linejoin:round;stroke-miterlimit:4;stroke-dasharray:none;stroke-dashoffset:0;stroke-opacity:1;paint-order:stroke markers fill"
       id="ellipse1586"
       cx="94.474174"
       cy="132.75456"
       rx="1.3009669"
       ry="1.369439" />
    <ellipse
       ry="0.40109932"
       rx="0.38104433"
       cy="127.53535"
       cx="93.280472"
       id="ellipse1588"
       style="opacity:1;fill:#ffffff;fill-opacity:0.93333333;stroke:none;stroke-width:0.58485579;stroke-linecap:round;stroke-linejoin:round;stroke-miterlimit:4;stroke-dasharray:none;stroke-dashoffset:0;stroke-opacity:1;paint-order:stroke markers fill" />
    <ellipse
       style="opacity:1;fill:#ffffff;fill-opacity:0.93333333;stroke:none;stroke-width:0.58485579;stroke-linecap:round;stroke-linejoin:round;stroke-miterlimit:4;stroke-dasharray:none;stroke-dashoffset:0;stroke-opacity:1;paint-order:stroke markers fill"
       id="ellipse1590"
       cx="93.280472"
       cy="127.53535"
       rx="0.38104433"
       ry="0.40109932" />
    <ellipse
       ry="0.40109932"
       rx="0.38104433"
       cy="133.01314"
       cx="90.267685"
       id="ellipse1592"
       style="opacity:1;fill:#ffffff;fill-opacity:0.93333333;stroke:none;stroke-width:0.58485579;stroke-linecap:round;stroke-linejoin:round;stroke-miterlimit:4;stroke-dasharray:none;stroke-dashoffset:0;stroke-opacity:1;paint-order:stroke markers fill" />
    <ellipse
       style="opacity:1;fill:#ffffff;fill-opacity:0.93333333;stroke:none;stroke-width:0.58485579;stroke-linecap:round;stroke-linejoin:round;stroke-miterlimit:4;stroke-dasharray:none;stroke-dashoffset:0;stroke-opacity:1;paint-order:stroke markers fill"
       id="ellipse1594"
       cx="90.267685"
       cy="133.01314"
       rx="0.38104433"
       ry="0.40109932" />
    <ellipse
       ry="0.40109932"
       rx="0.38104433"
       cy="128.49397"
       cx="83.352028"
       id="ellipse1596"
       style="opacity:1;fill:#ffffff;fill-opacity:0.93333333;stroke:none;stroke-width:0.58485579;stroke-linecap:round;stroke-linejoin:round;stroke-miterlimit:4;stroke-dasharray:none;stroke-dashoffset:0;stroke-opacity:1;paint-order:stroke markers fill" />
    <ellipse
       style="opacity:1;fill:#ffffff;fill-opacity:0.93333333;stroke:none;stroke-width:0.58485579;stroke-linecap:round;stroke-linejoin:round;stroke-miterlimit:4;stroke-dasharray:none;stroke-dashoffset:0;stroke-opacity:1;paint-order:stroke markers fill"
       id="ellipse1598"
       cx="83.352028"
       cy="128.49397"
       rx="0.38104433"
       ry="0.40109932" />
    <ellipse
       style="opacity:1;fill:#ffffff;fill-opacity:0.93333333;stroke:none;stroke-width:0.58485579;stroke-linecap:round;stroke-linejoin:round;stroke-miterlimit:4;stroke-dasharray:none;stroke-dashoffset:0;stroke-opacity:1;paint-order:stroke markers fill"
       id="ellipse1600"
       cx="88.008125"
       cy="122.12609"
       rx="0.38104433"
       ry="0.40109932" />
    <ellipse
       ry="0.40109932"
       rx="0.38104433"
       cy="122.12609"
       cx="88.008125"
       id="ellipse1602"
       style="opacity:1;fill:#ffffff;fill-opacity:0.93333333;stroke:none;stroke-width:0.58485579;stroke-linecap:round;stroke-linejoin:round;stroke-miterlimit:4;stroke-dasharray:none;stroke-dashoffset:0;stroke-opacity:1;paint-order:stroke markers fill" />
  </g>
</svg>
