<?xml version="1.0" encoding="iso-8859-1"?>
<!-- Generator: Adobe Illustrator 19.0.0, SVG Export Plug-In . SVG Version: 6.00 Build 0)  -->
<svg version="1.1" id="Layer_1" xmlns="http://www.w3.org/2000/svg" xmlns:xlink="http://www.w3.org/1999/xlink" x="0px" y="0px"
	 viewBox="0 0 297 297" style="enable-background:new 0 0 297 297;" xml:space="preserve">
<g>
	<path style="fill:#5D8924;" d="M132.626,121.285c-0.095-0.656-2.476-16.252-14.971-32.204
		C106.289,74.571,84.033,56.828,42.548,54.7c-1.631-0.084-3.214,0.354-4.544,1.21c-0.802,0.517-1.512,1.186-2.084,1.986
		c-0.335,0.47-8.26,11.666-11.973,26.791c-5.168,21.053,0.114,39.422,15.276,53.121c1.466,1.325,3.304,1.978,5.136,1.978
		c2.092,0,4.177-0.851,5.689-2.526c1.547-1.713,2.171-3.932,1.916-6.056l32.452-3.916l33.009-3.983
		c0.016,0.091,0.028,0.167,0.036,0.214c0.623,4.171,4.497,7.065,8.682,6.452C130.33,129.363,133.234,125.474,132.626,121.285z"/>
	<path style="fill:#639929;" d="M35.92,57.896c-0.335,0.47-8.26,11.666-11.973,26.791c-5.168,21.053,0.114,39.422,15.276,53.121
		c1.466,1.325,3.304,1.978,5.136,1.978c2.092,0,4.177-0.851,5.689-2.526c1.547-1.713,2.171-3.932,1.916-6.056l32.452-3.916
		L38.004,55.911C37.202,56.427,36.492,57.096,35.92,57.896z"/>
	<path style="fill:#5D8924;" d="M132.626,121.285c-0.095-0.656-2.476-16.252-14.971-32.204
		C106.289,74.571,84.033,56.828,42.548,54.7c-1.631-0.084-3.214,0.354-4.544,1.21l46.411,71.377l33.009-3.983
		c0.016,0.091,0.028,0.167,0.036,0.214c0.623,4.171,4.497,7.065,8.682,6.452C130.33,129.363,133.234,125.474,132.626,121.285z"/>
	<path style="fill:#406012;" d="M163.686,53.78c-10.384-16.292-23.348-25.435-23.895-25.816c-1.21-0.844-2.621-1.303-4.059-1.364
		c-0.92-0.039-1.851,0.082-2.748,0.38c-42.258,14.086-54.774,90.487-55.287,93.732c-0.66,4.18,2.193,8.101,6.372,8.763
		c4.18,0.666,8.105-2.189,8.769-6.37c0.06-0.381,0.132-0.793,0.201-1.199h35.987h27.626c0,3.128,1.921,6.065,5.029,7.2
		c0.867,0.317,1.755,0.467,2.627,0.467c3.129,0,6.066-1.929,7.2-5.038C180.387,100.206,177.683,75.74,163.686,53.78z"/>
	<path style="fill:#476D16;" d="M132.984,26.98c-42.258,14.086-54.774,90.487-55.287,93.732c-0.66,4.18,2.193,8.101,6.372,8.763
		c4.18,0.666,8.105-2.189,8.769-6.37c0.06-0.381,0.132-0.793,0.201-1.199h35.987l6.707-95.307
		C134.812,26.561,133.881,26.682,132.984,26.98z"/>
	<path style="fill:#406012;" d="M163.686,53.78c-10.384-16.292-23.348-25.435-23.895-25.816c-1.21-0.844-2.621-1.303-4.059-1.364
		l-6.707,95.307h27.626c0,3.128,1.921,6.065,5.029,7.2c0.867,0.317,1.755,0.467,2.627,0.467c3.129,0,6.066-1.929,7.2-5.038
		C180.387,100.206,177.683,75.74,163.686,53.78z"/>
	<path style="fill:#87A836;" d="M230.435,76.07c-2.286-2.678-4.916-4.907-7.876-6.691c-6.409-3.862-14.375-5.626-23.807-5.264
		c-24.64,0.97-31.264,15.595-37.108,28.498c-4.901,10.82-9.132,20.163-23.398,23.361c-12.773,2.864-21.652,0.083-30.238-2.606
		c-13.834-4.333-28.136-8.811-52.067,12.948c-1.098,0.998-1.724,2.414-1.724,3.899v23.308c0,2.91,2.36,5.27,5.269,5.27h90.941
		h77.113c2.498,0,4.653-1.754,5.16-4.2l6.521-31.475c0.003-0.013,0.005-0.025,0.007-0.038
		C239.471,121.865,245.001,93.135,230.435,76.07z"/>
	<path style="fill:#99C248;" d="M198.752,64.115c-24.64,0.97-31.264,15.595-37.108,28.498c-4.901,10.819-9.132,20.162-23.398,23.361
		c-12.773,2.864-21.652,0.083-30.238-2.606c-13.834-4.333-28.136-8.811-52.067,12.948c-1.098,0.998-1.724,2.414-1.724,3.899v23.308
		c0,2.91,2.36,5.269,5.269,5.269h90.941l72.132-89.413C216.15,65.517,208.184,63.753,198.752,64.115z"/>
	<path style="fill:#87A836;" d="M230.435,76.07c-2.286-2.678-4.916-4.908-7.876-6.691l-72.132,89.413h77.113
		c2.498,0,4.653-1.754,5.16-4.2l6.521-31.475c0.003-0.013,0.005-0.025,0.007-0.037C239.471,121.865,245.001,93.135,230.435,76.07z"
		/>
	<g>
		<path style="fill:#E0ED35;" d="M262.162,70.327c16.876,16.877,16.876,44.239,0,61.116s-44.238,16.877-61.114,0L262.162,70.327z"/>
		<path style="fill:#7D932C;" d="M268.936,63.552c-1.796-1.796-4.234-2.806-6.775-2.806s-4.978,1.01-6.775,2.806l-30.805,30.806
			l-30.309,30.311c-3.742,3.741-3.742,9.808,0,13.55c9.972,9.972,23.23,15.463,37.332,15.463c13.986,0,27.136-5.406,37.079-15.222
			c0.083-0.082,0.17-0.158,0.253-0.241C289.521,117.632,289.521,84.137,268.936,63.552z M231.605,134.52
			c-5.692,0-11.169-1.404-16.034-4.05l22.561-22.562l23.048-23.049c6.9,12.75,4.969,29.049-5.792,39.81
			c-0.083,0.083-0.17,0.159-0.253,0.241C248.811,131.106,240.471,134.52,231.605,134.52z"/>
		<path style="fill:#9AB742;" d="M268.936,63.552c-1.796-1.796-4.234-2.806-6.775-2.806s-4.978,1.01-6.775,2.806l-30.805,30.806
			l13.549,13.549l23.048-23.049c6.9,12.75,4.969,29.049-5.792,39.81c-0.083,0.083-0.17,0.159-0.253,0.241l13.549,13.55
			c0.083-0.082,0.17-0.158,0.253-0.241C289.521,117.632,289.521,84.137,268.936,63.552z"/>
		<path style="fill:#7D932C;" d="M231.605,134.52c-5.692,0-11.169-1.404-16.034-4.05l22.561-22.562l-13.549-13.549l-30.309,30.311
			c-3.742,3.742-3.742,9.808,0,13.55c9.972,9.972,23.23,15.463,37.332,15.463c13.986,0,27.136-5.406,37.079-15.222l-13.549-13.55
			C248.811,131.106,240.471,134.52,231.605,134.52z"/>
	</g>
	<path style="fill:#911427;" d="M53.652,94.602c-0.107,0-0.212,0.007-0.319,0.008c-14.909,0.173-26.986,12.348-26.986,27.297
		s12.077,27.125,26.986,27.297c0.107,0.001,0.212,0.008,0.319,0.008c15.056,0,27.305-12.249,27.305-27.305
		C80.956,106.851,68.707,94.602,53.652,94.602z"/>
	<path style="fill:#A91523;" d="M26.347,121.907c0,14.949,12.077,27.124,26.986,27.297V94.61
		C38.424,94.783,26.347,106.958,26.347,121.907z"/>
	<path style="fill:#911427;" d="M53.652,94.602c-0.107,0-0.212,0.007-0.319,0.008v54.594c0.107,0.001,0.212,0.008,0.319,0.008
		c15.056,0,27.305-12.249,27.305-27.305S68.707,94.602,53.652,94.602z"/>
	<g>
		<path style="fill:#617C1E;" d="M164.305,148.733c-1.163,0-2.333-0.383-3.308-1.17c-2.264-1.828-2.617-5.146-0.788-7.41
			l30.179-37.365c1.827-2.264,5.147-2.617,7.41-0.788c2.264,1.828,2.617,5.146,0.788,7.41l-30.179,37.365
			C167.367,148.063,165.842,148.733,164.305,148.733z"/>
	</g>
	<path style="fill:#516662;" d="M195.924,226.336c-3.439,0-6.227,2.788-6.227,6.227h-41.516h-40.878
		c0-3.439-2.788-6.227-6.227-6.227s-6.227,2.788-6.227,6.227v31.616c0,3.439,2.788,6.227,6.227,6.227h47.105h47.743
		c3.439,0,6.227-2.788,6.227-6.227v-31.616C202.152,229.124,199.364,226.336,195.924,226.336z"/>
	<path style="fill:#6A847F;" d="M107.303,232.563c0-3.439-2.788-6.227-6.227-6.227s-6.227,2.788-6.227,6.227v31.616
		c0,3.439,2.788,6.227,6.227,6.227h47.105v-37.844L107.303,232.563L107.303,232.563z"/>
	<path style="fill:#516662;" d="M195.924,226.336c-3.439,0-6.227,2.788-6.227,6.227h-41.516v37.844h47.743
		c3.439,0,6.227-2.788,6.227-6.227v-31.616C202.152,229.124,199.363,226.336,195.924,226.336z"/>
	<path style="fill:#A1BEB9;" d="M290.773,139.392H148.181H6.227c-3.439,0-6.227,2.788-6.227,6.227
		c0,25.476,15.858,49.197,44.651,66.793c27.76,16.964,64.516,26.325,103.53,26.376c0.106,0,0.212,0.002,0.319,0.002
		c39.133,0,76.014-9.368,103.849-26.379C281.142,194.816,297,171.095,297,145.619C297,142.18,294.212,139.392,290.773,139.392z"/>
	<path style="fill:#829995;" d="M290.773,139.392H148.181v99.397c0.106,0,0.213,0.002,0.319,0.002
		c39.133,0,76.014-9.368,103.849-26.379C281.142,194.816,297,171.095,297,145.619C297,142.18,294.212,139.392,290.773,139.392z"/>
	<path style="fill:#A1BEB9;" d="M6.227,139.392c-3.439,0-6.227,2.788-6.227,6.227c0,25.476,15.858,49.197,44.651,66.793
		c27.76,16.964,64.516,26.325,103.53,26.376v-99.397H6.227V139.392z"/>
</g>
<g>
</g>
<g>
</g>
<g>
</g>
<g>
</g>
<g>
</g>
<g>
</g>
<g>
</g>
<g>
</g>
<g>
</g>
<g>
</g>
<g>
</g>
<g>
</g>
<g>
</g>
<g>
</g>
<g>
</g>
</svg>
